<mxfile host="app.diagrams.net" modified="2024-05-05T09:56:45.771Z" agent="Mozilla/5.0 (Windows NT 10.0; Win64; x64) AppleWebKit/537.36 (KHTML, like Gecko) Chrome/124.0.0.0 Safari/537.36" etag="WP6gowESmSRbtaxRxs_E" version="24.3.1" type="google">
  <diagram id="C5RBs43oDa-KdzZeNtuy" name="Page-1">
    <mxGraphModel grid="1" page="1" gridSize="12" guides="1" tooltips="1" connect="1" arrows="1" fold="1" pageScale="1" pageWidth="827" pageHeight="1169" math="0" shadow="0">
      <root>
        <mxCell id="WIyWlLk6GJQsqaUBKTNV-0" />
        <mxCell id="WIyWlLk6GJQsqaUBKTNV-1" parent="WIyWlLk6GJQsqaUBKTNV-0" />
        <mxCell id="vSTawlmRk1kdKzYNn-Im-0" value="" style="rounded=0;whiteSpace=wrap;html=1;" vertex="1" parent="WIyWlLk6GJQsqaUBKTNV-1">
          <mxGeometry x="160" y="145" width="120" height="60" as="geometry" />
        </mxCell>
        <mxCell id="vSTawlmRk1kdKzYNn-Im-1" value="" style="rounded=0;whiteSpace=wrap;html=1;" vertex="1" parent="WIyWlLk6GJQsqaUBKTNV-1">
          <mxGeometry x="144" y="430" width="120" height="60" as="geometry" />
        </mxCell>
        <mxCell id="vSTawlmRk1kdKzYNn-Im-3" value="" style="rounded=0;whiteSpace=wrap;html=1;direction=west;" vertex="1" parent="WIyWlLk6GJQsqaUBKTNV-1">
          <mxGeometry x="600" y="474" width="132" height="78" as="geometry" />
        </mxCell>
        <mxCell id="vSTawlmRk1kdKzYNn-Im-4" value="" style="ellipse;whiteSpace=wrap;html=1;" vertex="1" parent="WIyWlLk6GJQsqaUBKTNV-1">
          <mxGeometry x="-24" y="50" width="134" height="70" as="geometry" />
        </mxCell>
        <mxCell id="vSTawlmRk1kdKzYNn-Im-5" value="" style="ellipse;whiteSpace=wrap;html=1;" vertex="1" parent="WIyWlLk6GJQsqaUBKTNV-1">
          <mxGeometry x="110" y="10" width="120" height="60" as="geometry" />
        </mxCell>
        <mxCell id="vSTawlmRk1kdKzYNn-Im-6" value="" style="ellipse;whiteSpace=wrap;html=1;" vertex="1" parent="WIyWlLk6GJQsqaUBKTNV-1">
          <mxGeometry x="492" width="156" height="60" as="geometry" />
        </mxCell>
        <mxCell id="vSTawlmRk1kdKzYNn-Im-8" value="" style="ellipse;whiteSpace=wrap;html=1;" vertex="1" parent="WIyWlLk6GJQsqaUBKTNV-1">
          <mxGeometry x="-30" y="150" width="120" height="70" as="geometry" />
        </mxCell>
        <mxCell id="vSTawlmRk1kdKzYNn-Im-9" value="" style="ellipse;whiteSpace=wrap;html=1;" vertex="1" parent="WIyWlLk6GJQsqaUBKTNV-1">
          <mxGeometry x="370" y="25" width="120" height="50" as="geometry" />
        </mxCell>
        <mxCell id="vSTawlmRk1kdKzYNn-Im-10" value="id" style="text;strokeColor=none;align=center;fillColor=none;html=1;verticalAlign=middle;whiteSpace=wrap;rounded=0;textDecoration=underline;fontSize=28;" vertex="1" parent="WIyWlLk6GJQsqaUBKTNV-1">
          <mxGeometry x="-40" y="150" width="130" height="70" as="geometry" />
        </mxCell>
        <mxCell id="vSTawlmRk1kdKzYNn-Im-17" value="" style="line;strokeWidth=4;html=1;perimeter=backbonePerimeter;points=[];outlineConnect=0;" vertex="1" parent="WIyWlLk6GJQsqaUBKTNV-1">
          <mxGeometry x="7" y="195" width="36" height="10" as="geometry" />
        </mxCell>
        <mxCell id="vSTawlmRk1kdKzYNn-Im-18" value="musteriAdı" style="text;strokeColor=none;fillColor=none;html=1;align=center;verticalAlign=middle;whiteSpace=wrap;rounded=0;fontSize=26;" vertex="1" parent="WIyWlLk6GJQsqaUBKTNV-1">
          <mxGeometry x="22" y="72" width="42" height="26" as="geometry" />
        </mxCell>
        <mxCell id="vSTawlmRk1kdKzYNn-Im-19" value="sehir" style="text;html=1;align=center;verticalAlign=middle;whiteSpace=wrap;rounded=0;fontSize=28&#xa;;" vertex="1" parent="WIyWlLk6GJQsqaUBKTNV-1">
          <mxGeometry x="140" y="25" width="60" height="30" as="geometry" />
        </mxCell>
        <mxCell id="vSTawlmRk1kdKzYNn-Im-21" value="" style="endArrow=none;html=1;rounded=0;fontSize=12;startSize=8;endSize=8;curved=1;exitX=1;exitY=1;exitDx=0;exitDy=0;entryX=0;entryY=0.25;entryDx=0;entryDy=0;" edge="1" parent="WIyWlLk6GJQsqaUBKTNV-1" source="vSTawlmRk1kdKzYNn-Im-4" target="vSTawlmRk1kdKzYNn-Im-0">
          <mxGeometry width="50" height="50" relative="1" as="geometry">
            <mxPoint x="276" y="302" as="sourcePoint" />
            <mxPoint x="326" y="252" as="targetPoint" />
          </mxGeometry>
        </mxCell>
        <mxCell id="vSTawlmRk1kdKzYNn-Im-22" value="" style="endArrow=none;html=1;rounded=0;fontSize=12;startSize=8;endSize=8;curved=1;exitX=0.5;exitY=1;exitDx=0;exitDy=0;" edge="1" parent="WIyWlLk6GJQsqaUBKTNV-1" source="vSTawlmRk1kdKzYNn-Im-5" target="vSTawlmRk1kdKzYNn-Im-0">
          <mxGeometry width="50" height="50" relative="1" as="geometry">
            <mxPoint x="276" y="302" as="sourcePoint" />
            <mxPoint x="326" y="252" as="targetPoint" />
          </mxGeometry>
        </mxCell>
        <mxCell id="vSTawlmRk1kdKzYNn-Im-23" value="" style="endArrow=none;html=1;rounded=0;fontSize=12;startSize=8;endSize=8;curved=1;exitX=1;exitY=0.5;exitDx=0;exitDy=0;entryX=0;entryY=0.5;entryDx=0;entryDy=0;" edge="1" parent="WIyWlLk6GJQsqaUBKTNV-1" source="vSTawlmRk1kdKzYNn-Im-10" target="vSTawlmRk1kdKzYNn-Im-0">
          <mxGeometry width="50" height="50" relative="1" as="geometry">
            <mxPoint x="276" y="302" as="sourcePoint" />
            <mxPoint x="326" y="252" as="targetPoint" />
          </mxGeometry>
        </mxCell>
        <mxCell id="vSTawlmRk1kdKzYNn-Im-24" value="Müşteri" style="text;html=1;align=center;verticalAlign=middle;whiteSpace=wrap;rounded=0;fontSize=28&#xa;;" vertex="1" parent="WIyWlLk6GJQsqaUBKTNV-1">
          <mxGeometry x="190" y="160" width="60" height="30" as="geometry" />
        </mxCell>
        <mxCell id="vSTawlmRk1kdKzYNn-Im-25" value="" style="ellipse;whiteSpace=wrap;html=1;" vertex="1" parent="WIyWlLk6GJQsqaUBKTNV-1">
          <mxGeometry x="768" y="56" width="156" height="66" as="geometry" />
        </mxCell>
        <mxCell id="vSTawlmRk1kdKzYNn-Im-26" value="" style="ellipse;whiteSpace=wrap;html=1;" vertex="1" parent="WIyWlLk6GJQsqaUBKTNV-1">
          <mxGeometry x="672" y="10" width="132" height="62" as="geometry" />
        </mxCell>
        <mxCell id="vSTawlmRk1kdKzYNn-Im-27" value="Teslimat Bilgileri" style="text;html=1;align=center;verticalAlign=middle;whiteSpace=wrap;rounded=0;fontSize=23;" vertex="1" parent="WIyWlLk6GJQsqaUBKTNV-1">
          <mxGeometry x="594" y="169" width="60" height="30" as="geometry" />
        </mxCell>
        <mxCell id="vSTawlmRk1kdKzYNn-Im-28" value="id" style="text;html=1;align=center;verticalAlign=middle;whiteSpace=wrap;rounded=0;fontSize=28;" vertex="1" parent="WIyWlLk6GJQsqaUBKTNV-1">
          <mxGeometry x="400" y="35" width="60" height="30" as="geometry" />
        </mxCell>
        <mxCell id="vSTawlmRk1kdKzYNn-Im-29" value="" style="line;strokeWidth=4;html=1;perimeter=backbonePerimeter;points=[];outlineConnect=0;" vertex="1" parent="WIyWlLk6GJQsqaUBKTNV-1">
          <mxGeometry x="414" y="62" width="32" height="10" as="geometry" />
        </mxCell>
        <mxCell id="vSTawlmRk1kdKzYNn-Im-30" value="sevkiyatNoktası" style="text;html=1;align=center;verticalAlign=middle;whiteSpace=wrap;rounded=0;fontSize=20;" vertex="1" parent="WIyWlLk6GJQsqaUBKTNV-1">
          <mxGeometry x="540" y="15" width="60" height="30" as="geometry" />
        </mxCell>
        <mxCell id="vSTawlmRk1kdKzYNn-Im-32" value="teslimatTürü" style="text;html=1;align=center;verticalAlign=middle;whiteSpace=wrap;rounded=0;fontSize=20;" vertex="1" parent="WIyWlLk6GJQsqaUBKTNV-1">
          <mxGeometry x="708" y="26" width="60" height="30" as="geometry" />
        </mxCell>
        <mxCell id="vSTawlmRk1kdKzYNn-Im-33" value="planlananTarih" style="text;html=1;align=center;verticalAlign=middle;whiteSpace=wrap;rounded=0;fontSize=20;" vertex="1" parent="WIyWlLk6GJQsqaUBKTNV-1">
          <mxGeometry x="816" y="75" width="60" height="30" as="geometry" />
        </mxCell>
        <mxCell id="vSTawlmRk1kdKzYNn-Im-35" value="" style="ellipse;whiteSpace=wrap;html=1;" vertex="1" parent="WIyWlLk6GJQsqaUBKTNV-1">
          <mxGeometry x="804" y="127" width="156" height="68" as="geometry" />
        </mxCell>
        <mxCell id="vSTawlmRk1kdKzYNn-Im-36" value="teslimatTermini" style="text;html=1;align=center;verticalAlign=middle;whiteSpace=wrap;rounded=0;fontSize=20;" vertex="1" parent="WIyWlLk6GJQsqaUBKTNV-1">
          <mxGeometry x="827" y="127" width="108" height="72" as="geometry" />
        </mxCell>
        <mxCell id="vSTawlmRk1kdKzYNn-Im-37" value="" style="ellipse;whiteSpace=wrap;html=1;" vertex="1" parent="WIyWlLk6GJQsqaUBKTNV-1">
          <mxGeometry x="785" y="205" width="150" height="60" as="geometry" />
        </mxCell>
        <mxCell id="vSTawlmRk1kdKzYNn-Im-38" value="teslimAlacak" style="text;html=1;align=center;verticalAlign=middle;whiteSpace=wrap;rounded=0;fontSize=21;" vertex="1" parent="WIyWlLk6GJQsqaUBKTNV-1">
          <mxGeometry x="830" y="220" width="60" height="30" as="geometry" />
        </mxCell>
        <mxCell id="vSTawlmRk1kdKzYNn-Im-41" value="" style="endArrow=none;html=1;rounded=0;fontSize=12;startSize=8;endSize=8;curved=1;" edge="1" parent="WIyWlLk6GJQsqaUBKTNV-1" target="vSTawlmRk1kdKzYNn-Im-29">
          <mxGeometry width="50" height="50" relative="1" as="geometry">
            <mxPoint x="552" y="144" as="sourcePoint" />
            <mxPoint x="434" y="252" as="targetPoint" />
          </mxGeometry>
        </mxCell>
        <mxCell id="vSTawlmRk1kdKzYNn-Im-42" value="" style="endArrow=none;html=1;rounded=0;fontSize=12;startSize=8;endSize=8;curved=1;entryX=0.395;entryY=1.064;entryDx=0;entryDy=0;entryPerimeter=0;exitX=0;exitY=0;exitDx=39;exitDy=0;exitPerimeter=0;" edge="1" parent="WIyWlLk6GJQsqaUBKTNV-1" source="rgECArvfMiwLq1pNLp87-11" target="vSTawlmRk1kdKzYNn-Im-6">
          <mxGeometry width="50" height="50" relative="1" as="geometry">
            <mxPoint x="600" y="144" as="sourcePoint" />
            <mxPoint x="434" y="252" as="targetPoint" />
          </mxGeometry>
        </mxCell>
        <mxCell id="vSTawlmRk1kdKzYNn-Im-43" value="" style="endArrow=none;html=1;rounded=0;fontSize=12;startSize=8;endSize=8;curved=1;entryX=0.289;entryY=1.035;entryDx=0;entryDy=0;entryPerimeter=0;exitX=0;exitY=0;exitDx=117;exitDy=0;exitPerimeter=0;" edge="1" parent="WIyWlLk6GJQsqaUBKTNV-1" source="rgECArvfMiwLq1pNLp87-11" target="vSTawlmRk1kdKzYNn-Im-26">
          <mxGeometry width="50" height="50" relative="1" as="geometry">
            <mxPoint x="636" y="144" as="sourcePoint" />
            <mxPoint x="434" y="252" as="targetPoint" />
          </mxGeometry>
        </mxCell>
        <mxCell id="vSTawlmRk1kdKzYNn-Im-44" value="" style="endArrow=none;html=1;rounded=0;fontSize=12;startSize=8;endSize=8;curved=1;entryX=0.083;entryY=0.812;entryDx=0;entryDy=0;entryPerimeter=0;exitX=1;exitY=0;exitDx=0;exitDy=0;exitPerimeter=0;" edge="1" parent="WIyWlLk6GJQsqaUBKTNV-1" source="rgECArvfMiwLq1pNLp87-11" target="vSTawlmRk1kdKzYNn-Im-25">
          <mxGeometry width="50" height="50" relative="1" as="geometry">
            <mxPoint x="694" y="139.5" as="sourcePoint" />
            <mxPoint x="650" y="252" as="targetPoint" />
          </mxGeometry>
        </mxCell>
        <mxCell id="vSTawlmRk1kdKzYNn-Im-45" value="" style="endArrow=none;html=1;rounded=0;fontSize=12;startSize=8;endSize=8;curved=1;entryX=0;entryY=0.5;entryDx=0;entryDy=0;exitX=0;exitY=0;exitDx=156;exitDy=21;exitPerimeter=0;" edge="1" parent="WIyWlLk6GJQsqaUBKTNV-1" source="rgECArvfMiwLq1pNLp87-11" target="vSTawlmRk1kdKzYNn-Im-35">
          <mxGeometry width="50" height="50" relative="1" as="geometry">
            <mxPoint x="694" y="157.25" as="sourcePoint" />
            <mxPoint x="650" y="252" as="targetPoint" />
          </mxGeometry>
        </mxCell>
        <mxCell id="vSTawlmRk1kdKzYNn-Im-46" value="" style="endArrow=none;html=1;rounded=0;fontSize=12;startSize=8;endSize=8;curved=1;entryX=0;entryY=0.5;entryDx=0;entryDy=0;exitX=0;exitY=0;exitDx=156;exitDy=63;exitPerimeter=0;" edge="1" parent="WIyWlLk6GJQsqaUBKTNV-1" source="rgECArvfMiwLq1pNLp87-11" target="vSTawlmRk1kdKzYNn-Im-37">
          <mxGeometry width="50" height="50" relative="1" as="geometry">
            <mxPoint x="694" y="192.75" as="sourcePoint" />
            <mxPoint x="650" y="252" as="targetPoint" />
          </mxGeometry>
        </mxCell>
        <mxCell id="vSTawlmRk1kdKzYNn-Im-47" value="Nakliye" style="text;html=1;align=center;verticalAlign=middle;whiteSpace=wrap;rounded=0;fontSize=28;" vertex="1" parent="WIyWlLk6GJQsqaUBKTNV-1">
          <mxGeometry x="174" y="444" width="60" height="30" as="geometry" />
        </mxCell>
        <mxCell id="vSTawlmRk1kdKzYNn-Im-48" value="" style="ellipse;whiteSpace=wrap;html=1;" vertex="1" parent="WIyWlLk6GJQsqaUBKTNV-1">
          <mxGeometry x="-156" y="444" width="216" height="66" as="geometry" />
        </mxCell>
        <mxCell id="vSTawlmRk1kdKzYNn-Im-49" value="" style="ellipse;whiteSpace=wrap;html=1;" vertex="1" parent="WIyWlLk6GJQsqaUBKTNV-1">
          <mxGeometry x="-98" y="364" width="146" height="68" as="geometry" />
        </mxCell>
        <mxCell id="vSTawlmRk1kdKzYNn-Im-50" value="" style="ellipse;whiteSpace=wrap;html=1;" vertex="1" parent="WIyWlLk6GJQsqaUBKTNV-1">
          <mxGeometry x="-24" y="300" width="120" height="64" as="geometry" />
        </mxCell>
        <mxCell id="vSTawlmRk1kdKzYNn-Im-51" value="" style="ellipse;whiteSpace=wrap;html=1;" vertex="1" parent="WIyWlLk6GJQsqaUBKTNV-1">
          <mxGeometry x="-96" y="528" width="240" height="72" as="geometry" />
        </mxCell>
        <mxCell id="vSTawlmRk1kdKzYNn-Im-52" value="teslimatNo" style="text;html=1;align=center;verticalAlign=middle;whiteSpace=wrap;rounded=0;fontSize=26;" vertex="1" parent="WIyWlLk6GJQsqaUBKTNV-1">
          <mxGeometry x="-53" y="383" width="60" height="30" as="geometry" />
        </mxCell>
        <mxCell id="vSTawlmRk1kdKzYNn-Im-54" value="id" style="text;html=1;align=center;verticalAlign=middle;whiteSpace=wrap;rounded=0;fontSize=26;" vertex="1" parent="WIyWlLk6GJQsqaUBKTNV-1">
          <mxGeometry x="4" y="309" width="60" height="30" as="geometry" />
        </mxCell>
        <mxCell id="vSTawlmRk1kdKzYNn-Im-55" value="" style="line;strokeWidth=4;html=1;perimeter=backbonePerimeter;points=[];outlineConnect=0;" vertex="1" parent="WIyWlLk6GJQsqaUBKTNV-1">
          <mxGeometry x="18" y="339" width="36" height="10" as="geometry" />
        </mxCell>
        <mxCell id="vSTawlmRk1kdKzYNn-Im-57" value="yüklemeSaatiBaşlangıcı" style="text;html=1;align=center;verticalAlign=middle;whiteSpace=wrap;rounded=0;fontSize=19;" vertex="1" parent="WIyWlLk6GJQsqaUBKTNV-1">
          <mxGeometry x="-78" y="462" width="60" height="30" as="geometry" />
        </mxCell>
        <mxCell id="vSTawlmRk1kdKzYNn-Im-60" value="" style="endArrow=none;html=1;rounded=0;fontSize=12;startSize=8;endSize=8;curved=1;exitX=0.25;exitY=0;exitDx=0;exitDy=0;entryX=1;entryY=1;entryDx=0;entryDy=0;" edge="1" parent="WIyWlLk6GJQsqaUBKTNV-1" source="vSTawlmRk1kdKzYNn-Im-1" target="vSTawlmRk1kdKzYNn-Im-50">
          <mxGeometry width="50" height="50" relative="1" as="geometry">
            <mxPoint x="108" y="398" as="sourcePoint" />
            <mxPoint x="158" y="348" as="targetPoint" />
          </mxGeometry>
        </mxCell>
        <mxCell id="vSTawlmRk1kdKzYNn-Im-61" value="" style="endArrow=none;html=1;rounded=0;fontSize=12;startSize=8;endSize=8;curved=1;entryX=0;entryY=0;entryDx=0;entryDy=0;exitX=1.003;exitY=0.645;exitDx=0;exitDy=0;exitPerimeter=0;" edge="1" parent="WIyWlLk6GJQsqaUBKTNV-1" source="vSTawlmRk1kdKzYNn-Im-49" target="vSTawlmRk1kdKzYNn-Im-1">
          <mxGeometry width="50" height="50" relative="1" as="geometry">
            <mxPoint x="108" y="398" as="sourcePoint" />
            <mxPoint x="158" y="348" as="targetPoint" />
          </mxGeometry>
        </mxCell>
        <mxCell id="vSTawlmRk1kdKzYNn-Im-62" value="" style="endArrow=none;html=1;rounded=0;fontSize=12;startSize=8;endSize=8;curved=1;entryX=0;entryY=0.5;entryDx=0;entryDy=0;exitX=1;exitY=0.5;exitDx=0;exitDy=0;" edge="1" parent="WIyWlLk6GJQsqaUBKTNV-1" source="vSTawlmRk1kdKzYNn-Im-48" target="vSTawlmRk1kdKzYNn-Im-1">
          <mxGeometry width="50" height="50" relative="1" as="geometry">
            <mxPoint x="108" y="398" as="sourcePoint" />
            <mxPoint x="158" y="348" as="targetPoint" />
          </mxGeometry>
        </mxCell>
        <mxCell id="vSTawlmRk1kdKzYNn-Im-63" value="" style="endArrow=none;html=1;rounded=0;fontSize=12;startSize=8;endSize=8;curved=1;entryX=0;entryY=1;entryDx=0;entryDy=0;" edge="1" parent="WIyWlLk6GJQsqaUBKTNV-1" source="vSTawlmRk1kdKzYNn-Im-51" target="vSTawlmRk1kdKzYNn-Im-1">
          <mxGeometry width="50" height="50" relative="1" as="geometry">
            <mxPoint x="108" y="398" as="sourcePoint" />
            <mxPoint x="158" y="348" as="targetPoint" />
          </mxGeometry>
        </mxCell>
        <mxCell id="vSTawlmRk1kdKzYNn-Im-64" value="yüklemeSaatiBitişi" style="text;html=1;align=center;verticalAlign=middle;whiteSpace=wrap;rounded=0;fontSize=23;" vertex="1" parent="WIyWlLk6GJQsqaUBKTNV-1">
          <mxGeometry y="549" width="60" height="30" as="geometry" />
        </mxCell>
        <mxCell id="vSTawlmRk1kdKzYNn-Im-65" value="" style="rhombus;whiteSpace=wrap;html=1;" vertex="1" parent="WIyWlLk6GJQsqaUBKTNV-1">
          <mxGeometry x="312" y="235" width="144" height="125" as="geometry" />
        </mxCell>
        <mxCell id="vSTawlmRk1kdKzYNn-Im-66" value="Teslim Edilir" style="text;html=1;align=center;verticalAlign=middle;whiteSpace=wrap;rounded=0;fontSize=22;" vertex="1" parent="WIyWlLk6GJQsqaUBKTNV-1">
          <mxGeometry x="354" y="282.5" width="60" height="30" as="geometry" />
        </mxCell>
        <mxCell id="vSTawlmRk1kdKzYNn-Im-67" value="" style="endArrow=none;html=1;rounded=0;fontSize=12;startSize=8;endSize=8;curved=1;entryX=1;entryY=1;entryDx=0;entryDy=0;exitX=0;exitY=0;exitDx=0;exitDy=0;" edge="1" parent="WIyWlLk6GJQsqaUBKTNV-1" source="vSTawlmRk1kdKzYNn-Im-65" target="vSTawlmRk1kdKzYNn-Im-0">
          <mxGeometry width="50" height="50" relative="1" as="geometry">
            <mxPoint x="420" y="398" as="sourcePoint" />
            <mxPoint x="470" y="348" as="targetPoint" />
          </mxGeometry>
        </mxCell>
        <mxCell id="vSTawlmRk1kdKzYNn-Im-68" value="" style="endArrow=none;html=1;rounded=0;fontSize=12;startSize=8;endSize=8;curved=1;entryX=0;entryY=0;entryDx=44;entryDy=74;exitX=1;exitY=0.5;exitDx=0;exitDy=0;entryPerimeter=0;" edge="1" parent="WIyWlLk6GJQsqaUBKTNV-1" source="vSTawlmRk1kdKzYNn-Im-65" target="rgECArvfMiwLq1pNLp87-11">
          <mxGeometry width="50" height="50" relative="1" as="geometry">
            <mxPoint x="420" y="398" as="sourcePoint" />
            <mxPoint x="622" y="210.5" as="targetPoint" />
          </mxGeometry>
        </mxCell>
        <mxCell id="vSTawlmRk1kdKzYNn-Im-70" value="Teslimat Bilgileri Kalemi" style="text;html=1;align=center;verticalAlign=middle;whiteSpace=wrap;rounded=0;fontSize=20;" vertex="1" parent="WIyWlLk6GJQsqaUBKTNV-1">
          <mxGeometry x="630" y="474" width="84" height="78" as="geometry" />
        </mxCell>
        <mxCell id="vSTawlmRk1kdKzYNn-Im-72" value="" style="ellipse;whiteSpace=wrap;html=1;" vertex="1" parent="WIyWlLk6GJQsqaUBKTNV-1">
          <mxGeometry x="750" y="600" width="120" height="59.5" as="geometry" />
        </mxCell>
        <mxCell id="vSTawlmRk1kdKzYNn-Im-73" value="" style="ellipse;whiteSpace=wrap;html=1;" vertex="1" parent="WIyWlLk6GJQsqaUBKTNV-1">
          <mxGeometry x="816" y="362" width="120" height="60" as="geometry" />
        </mxCell>
        <mxCell id="vSTawlmRk1kdKzYNn-Im-74" value="" style="ellipse;whiteSpace=wrap;html=1;" vertex="1" parent="WIyWlLk6GJQsqaUBKTNV-1">
          <mxGeometry x="750" y="291.5" width="120" height="69.5" as="geometry" />
        </mxCell>
        <mxCell id="vSTawlmRk1kdKzYNn-Im-75" value="" style="ellipse;whiteSpace=wrap;html=1;" vertex="1" parent="WIyWlLk6GJQsqaUBKTNV-1">
          <mxGeometry x="840" y="528.5" width="134" height="71.5" as="geometry" />
        </mxCell>
        <mxCell id="vSTawlmRk1kdKzYNn-Im-76" value="" style="ellipse;whiteSpace=wrap;html=1;" vertex="1" parent="WIyWlLk6GJQsqaUBKTNV-1">
          <mxGeometry x="840" y="432" width="120" height="72" as="geometry" />
        </mxCell>
        <mxCell id="vSTawlmRk1kdKzYNn-Im-77" value="" style="ellipse;whiteSpace=wrap;html=1;" vertex="1" parent="WIyWlLk6GJQsqaUBKTNV-1">
          <mxGeometry x="612" y="636" width="144" height="68" as="geometry" />
        </mxCell>
        <mxCell id="vSTawlmRk1kdKzYNn-Im-78" value="" style="ellipse;whiteSpace=wrap;html=1;" vertex="1" parent="WIyWlLk6GJQsqaUBKTNV-1">
          <mxGeometry x="432" y="648" width="168" height="68" as="geometry" />
        </mxCell>
        <mxCell id="vSTawlmRk1kdKzYNn-Im-79" value="id" style="text;html=1;align=center;verticalAlign=middle;whiteSpace=wrap;rounded=0;fontSize=26;" vertex="1" parent="WIyWlLk6GJQsqaUBKTNV-1">
          <mxGeometry x="770" y="309" width="60" height="30" as="geometry" />
        </mxCell>
        <mxCell id="vSTawlmRk1kdKzYNn-Im-80" value="" style="line;strokeWidth=4;html=1;perimeter=backbonePerimeter;points=[];outlineConnect=0;" vertex="1" parent="WIyWlLk6GJQsqaUBKTNV-1">
          <mxGeometry x="788" y="338" width="24" height="1" as="geometry" />
        </mxCell>
        <mxCell id="vSTawlmRk1kdKzYNn-Im-83" value="teslimatNo" style="text;html=1;align=center;verticalAlign=middle;whiteSpace=wrap;rounded=0;fontSize=21;" vertex="1" parent="WIyWlLk6GJQsqaUBKTNV-1">
          <mxGeometry x="846" y="377" width="60" height="30" as="geometry" />
        </mxCell>
        <mxCell id="vSTawlmRk1kdKzYNn-Im-84" value="malzemeNo" style="text;html=1;align=center;verticalAlign=middle;whiteSpace=wrap;rounded=0;fontSize=20;" vertex="1" parent="WIyWlLk6GJQsqaUBKTNV-1">
          <mxGeometry x="870" y="453" width="60" height="30" as="geometry" />
        </mxCell>
        <mxCell id="vSTawlmRk1kdKzYNn-Im-85" value="malzemeİsmi" style="text;html=1;align=center;verticalAlign=middle;whiteSpace=wrap;rounded=0;fontSize=20;" vertex="1" parent="WIyWlLk6GJQsqaUBKTNV-1">
          <mxGeometry x="877" y="549" width="60" height="30" as="geometry" />
        </mxCell>
        <mxCell id="vSTawlmRk1kdKzYNn-Im-86" value="depoYeri" style="text;html=1;align=center;verticalAlign=middle;whiteSpace=wrap;rounded=0;fontSize=20;" vertex="1" parent="WIyWlLk6GJQsqaUBKTNV-1">
          <mxGeometry x="780" y="614.75" width="60" height="30" as="geometry" />
        </mxCell>
        <mxCell id="vSTawlmRk1kdKzYNn-Im-87" value="üretimYeri" style="text;html=1;align=center;verticalAlign=middle;whiteSpace=wrap;rounded=0;fontSize=20;" vertex="1" parent="WIyWlLk6GJQsqaUBKTNV-1">
          <mxGeometry x="654" y="655" width="60" height="30" as="geometry" />
        </mxCell>
        <mxCell id="vSTawlmRk1kdKzYNn-Im-88" value="malzemeGrubu" style="text;html=1;align=center;verticalAlign=middle;whiteSpace=wrap;rounded=0;fontSize=21;" vertex="1" parent="WIyWlLk6GJQsqaUBKTNV-1">
          <mxGeometry x="486" y="667" width="60" height="30" as="geometry" />
        </mxCell>
        <mxCell id="vSTawlmRk1kdKzYNn-Im-89" value="" style="endArrow=none;html=1;rounded=0;fontSize=12;startSize=8;endSize=8;curved=1;entryX=0;entryY=1;entryDx=0;entryDy=0;exitX=0.5;exitY=0;exitDx=0;exitDy=0;" edge="1" parent="WIyWlLk6GJQsqaUBKTNV-1" source="vSTawlmRk1kdKzYNn-Im-70" target="vSTawlmRk1kdKzYNn-Im-74">
          <mxGeometry width="50" height="50" relative="1" as="geometry">
            <mxPoint x="660" y="398" as="sourcePoint" />
            <mxPoint x="710" y="348" as="targetPoint" />
          </mxGeometry>
        </mxCell>
        <mxCell id="vSTawlmRk1kdKzYNn-Im-91" value="" style="endArrow=none;html=1;rounded=0;fontSize=12;startSize=8;endSize=8;curved=1;exitX=-0.015;exitY=0.688;exitDx=0;exitDy=0;exitPerimeter=0;entryX=0.872;entryY=-0.012;entryDx=0;entryDy=0;entryPerimeter=0;" edge="1" parent="WIyWlLk6GJQsqaUBKTNV-1" source="vSTawlmRk1kdKzYNn-Im-73" target="vSTawlmRk1kdKzYNn-Im-70">
          <mxGeometry width="50" height="50" relative="1" as="geometry">
            <mxPoint x="660" y="398" as="sourcePoint" />
            <mxPoint x="636" y="348" as="targetPoint" />
          </mxGeometry>
        </mxCell>
        <mxCell id="vSTawlmRk1kdKzYNn-Im-92" value="" style="endArrow=none;html=1;rounded=0;fontSize=12;startSize=8;endSize=8;curved=1;entryX=0;entryY=0.5;entryDx=0;entryDy=0;exitX=0;exitY=0.5;exitDx=0;exitDy=0;" edge="1" parent="WIyWlLk6GJQsqaUBKTNV-1" source="vSTawlmRk1kdKzYNn-Im-3" target="vSTawlmRk1kdKzYNn-Im-76">
          <mxGeometry width="50" height="50" relative="1" as="geometry">
            <mxPoint x="660" y="398" as="sourcePoint" />
            <mxPoint x="710" y="348" as="targetPoint" />
          </mxGeometry>
        </mxCell>
        <mxCell id="vSTawlmRk1kdKzYNn-Im-93" value="" style="endArrow=none;html=1;rounded=0;fontSize=12;startSize=8;endSize=8;curved=1;entryX=0;entryY=0.5;entryDx=0;entryDy=0;exitX=0;exitY=0.25;exitDx=0;exitDy=0;" edge="1" parent="WIyWlLk6GJQsqaUBKTNV-1" source="vSTawlmRk1kdKzYNn-Im-3" target="vSTawlmRk1kdKzYNn-Im-75">
          <mxGeometry width="50" height="50" relative="1" as="geometry">
            <mxPoint x="660" y="398" as="sourcePoint" />
            <mxPoint x="710" y="348" as="targetPoint" />
          </mxGeometry>
        </mxCell>
        <mxCell id="vSTawlmRk1kdKzYNn-Im-94" value="" style="endArrow=none;html=1;rounded=0;fontSize=12;startSize=8;endSize=8;curved=1;entryX=0;entryY=0;entryDx=0;entryDy=0;exitX=0.75;exitY=1;exitDx=0;exitDy=0;" edge="1" parent="WIyWlLk6GJQsqaUBKTNV-1" source="vSTawlmRk1kdKzYNn-Im-70" target="vSTawlmRk1kdKzYNn-Im-86">
          <mxGeometry width="50" height="50" relative="1" as="geometry">
            <mxPoint x="660" y="398" as="sourcePoint" />
            <mxPoint x="710" y="348" as="targetPoint" />
          </mxGeometry>
        </mxCell>
        <mxCell id="vSTawlmRk1kdKzYNn-Im-95" value="" style="endArrow=none;html=1;rounded=0;fontSize=12;startSize=8;endSize=8;curved=1;exitX=0.5;exitY=1;exitDx=0;exitDy=0;" edge="1" parent="WIyWlLk6GJQsqaUBKTNV-1" source="vSTawlmRk1kdKzYNn-Im-70" target="vSTawlmRk1kdKzYNn-Im-77">
          <mxGeometry width="50" height="50" relative="1" as="geometry">
            <mxPoint x="648" y="384" as="sourcePoint" />
            <mxPoint x="710" y="348" as="targetPoint" />
          </mxGeometry>
        </mxCell>
        <mxCell id="vSTawlmRk1kdKzYNn-Im-96" value="" style="endArrow=none;html=1;rounded=0;fontSize=12;startSize=8;endSize=8;curved=1;exitX=0.5;exitY=0;exitDx=0;exitDy=0;entryX=0;entryY=1;entryDx=0;entryDy=0;" edge="1" parent="WIyWlLk6GJQsqaUBKTNV-1" source="vSTawlmRk1kdKzYNn-Im-78" target="vSTawlmRk1kdKzYNn-Im-70">
          <mxGeometry width="50" height="50" relative="1" as="geometry">
            <mxPoint x="660" y="398" as="sourcePoint" />
            <mxPoint x="710" y="348" as="targetPoint" />
          </mxGeometry>
        </mxCell>
        <mxCell id="vSTawlmRk1kdKzYNn-Im-97" value="" style="rhombus;whiteSpace=wrap;html=1;" vertex="1" parent="WIyWlLk6GJQsqaUBKTNV-1">
          <mxGeometry x="540" y="300" width="132" height="120.5" as="geometry" />
        </mxCell>
        <mxCell id="vSTawlmRk1kdKzYNn-Im-98" value="Teslimat Bilgileri Tutar" style="text;html=1;align=center;verticalAlign=middle;whiteSpace=wrap;rounded=0;fontSize=20;" vertex="1" parent="WIyWlLk6GJQsqaUBKTNV-1">
          <mxGeometry x="576" y="353" width="60" height="30" as="geometry" />
        </mxCell>
        <mxCell id="vSTawlmRk1kdKzYNn-Im-100" value="" style="endArrow=none;html=1;rounded=0;fontSize=12;startSize=8;endSize=8;curved=1;entryX=0;entryY=0;entryDx=117;entryDy=84;exitX=0.5;exitY=0;exitDx=0;exitDy=0;entryPerimeter=0;" edge="1" parent="WIyWlLk6GJQsqaUBKTNV-1" source="vSTawlmRk1kdKzYNn-Im-97" target="rgECArvfMiwLq1pNLp87-11">
          <mxGeometry width="50" height="50" relative="1" as="geometry">
            <mxPoint x="600" y="386" as="sourcePoint" />
            <mxPoint x="658" y="210.5" as="targetPoint" />
          </mxGeometry>
        </mxCell>
        <mxCell id="vSTawlmRk1kdKzYNn-Im-101" value="" style="endArrow=none;html=1;rounded=0;fontSize=12;startSize=8;endSize=8;curved=1;entryX=0;entryY=0;entryDx=0;entryDy=0;exitX=0.5;exitY=1;exitDx=0;exitDy=0;" edge="1" parent="WIyWlLk6GJQsqaUBKTNV-1" source="vSTawlmRk1kdKzYNn-Im-97" target="vSTawlmRk1kdKzYNn-Im-70">
          <mxGeometry width="50" height="50" relative="1" as="geometry">
            <mxPoint x="600" y="386" as="sourcePoint" />
            <mxPoint x="650" y="336" as="targetPoint" />
          </mxGeometry>
        </mxCell>
        <mxCell id="vSTawlmRk1kdKzYNn-Im-102" value="" style="rhombus;whiteSpace=wrap;html=1;" vertex="1" parent="WIyWlLk6GJQsqaUBKTNV-1">
          <mxGeometry x="336" y="432" width="134" height="125" as="geometry" />
        </mxCell>
        <mxCell id="vSTawlmRk1kdKzYNn-Im-103" value="Nakliye Edilir" style="text;html=1;align=center;verticalAlign=middle;whiteSpace=wrap;rounded=0;fontSize=20;" vertex="1" parent="WIyWlLk6GJQsqaUBKTNV-1">
          <mxGeometry x="373" y="479.5" width="60" height="30" as="geometry" />
        </mxCell>
        <mxCell id="vSTawlmRk1kdKzYNn-Im-104" value="" style="endArrow=none;html=1;rounded=0;fontSize=12;startSize=8;endSize=8;curved=1;entryX=1;entryY=0.5;entryDx=0;entryDy=0;exitX=0;exitY=0.5;exitDx=0;exitDy=0;" edge="1" parent="WIyWlLk6GJQsqaUBKTNV-1" source="vSTawlmRk1kdKzYNn-Im-102" target="vSTawlmRk1kdKzYNn-Im-1">
          <mxGeometry width="50" height="50" relative="1" as="geometry">
            <mxPoint x="396" y="482" as="sourcePoint" />
            <mxPoint x="446" y="432" as="targetPoint" />
          </mxGeometry>
        </mxCell>
        <mxCell id="vSTawlmRk1kdKzYNn-Im-105" value="" style="endArrow=none;html=1;rounded=0;fontSize=12;startSize=8;endSize=8;curved=1;entryX=1;entryY=0.5;entryDx=0;entryDy=0;exitX=1;exitY=0.5;exitDx=0;exitDy=0;" edge="1" parent="WIyWlLk6GJQsqaUBKTNV-1" source="vSTawlmRk1kdKzYNn-Im-102" target="vSTawlmRk1kdKzYNn-Im-3">
          <mxGeometry width="50" height="50" relative="1" as="geometry">
            <mxPoint x="396" y="482" as="sourcePoint" />
            <mxPoint x="446" y="432" as="targetPoint" />
          </mxGeometry>
        </mxCell>
        <mxCell id="rgECArvfMiwLq1pNLp87-1" value="1" style="text;html=1;align=center;verticalAlign=middle;whiteSpace=wrap;rounded=0;fontSize=23;" vertex="1" parent="WIyWlLk6GJQsqaUBKTNV-1">
          <mxGeometry x="280" y="205" width="60" height="30" as="geometry" />
        </mxCell>
        <mxCell id="rgECArvfMiwLq1pNLp87-2" value="n" style="text;html=1;align=center;verticalAlign=middle;whiteSpace=wrap;rounded=0;fontSize=23;" vertex="1" parent="WIyWlLk6GJQsqaUBKTNV-1">
          <mxGeometry x="490" y="235" width="60" height="30" as="geometry" />
        </mxCell>
        <mxCell id="rgECArvfMiwLq1pNLp87-3" value="n" style="text;html=1;align=center;verticalAlign=middle;whiteSpace=wrap;rounded=0;fontSize=23;" vertex="1" parent="WIyWlLk6GJQsqaUBKTNV-1">
          <mxGeometry x="504" y="474" width="60" height="30" as="geometry" />
        </mxCell>
        <mxCell id="rgECArvfMiwLq1pNLp87-4" value="1" style="text;html=1;align=center;verticalAlign=middle;whiteSpace=wrap;rounded=0;fontSize=23;" vertex="1" parent="WIyWlLk6GJQsqaUBKTNV-1">
          <mxGeometry x="264" y="449.5" width="60" height="30" as="geometry" />
        </mxCell>
        <mxCell id="rgECArvfMiwLq1pNLp87-5" style="edgeStyle=orthogonalEdgeStyle;rounded=0;orthogonalLoop=1;jettySize=auto;html=1;exitX=0.5;exitY=1;exitDx=0;exitDy=0;" edge="1" parent="WIyWlLk6GJQsqaUBKTNV-1" source="rgECArvfMiwLq1pNLp87-4" target="rgECArvfMiwLq1pNLp87-4">
          <mxGeometry relative="1" as="geometry" />
        </mxCell>
        <mxCell id="rgECArvfMiwLq1pNLp87-6" value="m" style="text;html=1;align=center;verticalAlign=middle;whiteSpace=wrap;rounded=0;fontSize=23;" vertex="1" parent="WIyWlLk6GJQsqaUBKTNV-1">
          <mxGeometry x="624" y="245" width="60" height="30" as="geometry" />
        </mxCell>
        <mxCell id="rgECArvfMiwLq1pNLp87-8" value="" style="endArrow=classic;html=1;rounded=0;exitX=1;exitY=0.5;exitDx=0;exitDy=0;" edge="1" parent="WIyWlLk6GJQsqaUBKTNV-1" source="vSTawlmRk1kdKzYNn-Im-37" target="rgECArvfMiwLq1pNLp87-9">
          <mxGeometry width="50" height="50" relative="1" as="geometry">
            <mxPoint x="828" y="242" as="sourcePoint" />
            <mxPoint x="1068" y="264" as="targetPoint" />
          </mxGeometry>
        </mxCell>
        <mxCell id="rgECArvfMiwLq1pNLp87-9" value="" style="ellipse;shape=doubleEllipse;whiteSpace=wrap;html=1;aspect=fixed;" vertex="1" parent="WIyWlLk6GJQsqaUBKTNV-1">
          <mxGeometry x="1028" y="224" width="80" height="80" as="geometry" />
        </mxCell>
        <mxCell id="rgECArvfMiwLq1pNLp87-10" value="müsteri tablosundaki müşteri adı ile eşleşir." style="text;html=1;align=center;verticalAlign=middle;whiteSpace=wrap;rounded=0;" vertex="1" parent="WIyWlLk6GJQsqaUBKTNV-1">
          <mxGeometry x="1038" y="249" width="60" height="30" as="geometry" />
        </mxCell>
        <mxCell id="rgECArvfMiwLq1pNLp87-11" value="" style="verticalLabelPosition=bottom;verticalAlign=top;html=1;shape=mxgraph.basic.frame;dx=10;whiteSpace=wrap;" vertex="1" parent="WIyWlLk6GJQsqaUBKTNV-1">
          <mxGeometry x="552" y="142" width="156" height="84" as="geometry" />
        </mxCell>
        <mxCell id="rgECArvfMiwLq1pNLp87-14" value="" style="verticalLabelPosition=bottom;verticalAlign=top;html=1;shape=mxgraph.basic.frame;dx=10;whiteSpace=wrap;" vertex="1" parent="WIyWlLk6GJQsqaUBKTNV-1">
          <mxGeometry x="132" y="792" width="154" height="97" as="geometry" />
        </mxCell>
        <mxCell id="rgECArvfMiwLq1pNLp87-15" value="Paket Bilgileri" style="text;html=1;align=center;verticalAlign=middle;whiteSpace=wrap;rounded=0;fontSize=28;" vertex="1" parent="WIyWlLk6GJQsqaUBKTNV-1">
          <mxGeometry x="179" y="826.75" width="60" height="27.5" as="geometry" />
        </mxCell>
        <mxCell id="rgECArvfMiwLq1pNLp87-16" value="" style="ellipse;whiteSpace=wrap;html=1;" vertex="1" parent="WIyWlLk6GJQsqaUBKTNV-1">
          <mxGeometry x="-108" y="936" width="138" height="60" as="geometry" />
        </mxCell>
        <mxCell id="rgECArvfMiwLq1pNLp87-17" value="" style="ellipse;whiteSpace=wrap;html=1;" vertex="1" parent="WIyWlLk6GJQsqaUBKTNV-1">
          <mxGeometry x="-120" y="826.75" width="120" height="60" as="geometry" />
        </mxCell>
        <mxCell id="rgECArvfMiwLq1pNLp87-18" value="id" style="text;html=1;align=center;verticalAlign=middle;whiteSpace=wrap;rounded=0;fontSize=28;" vertex="1" parent="WIyWlLk6GJQsqaUBKTNV-1">
          <mxGeometry x="-86.5" y="840" width="60" height="30" as="geometry" />
        </mxCell>
        <mxCell id="rgECArvfMiwLq1pNLp87-19" value="" style="line;strokeWidth=4;html=1;perimeter=backbonePerimeter;points=[];outlineConnect=0;" vertex="1" parent="WIyWlLk6GJQsqaUBKTNV-1">
          <mxGeometry x="-73" y="854.25" width="33" height="36" as="geometry" />
        </mxCell>
        <mxCell id="rgECArvfMiwLq1pNLp87-20" value="ürünTipi" style="text;html=1;align=center;verticalAlign=middle;whiteSpace=wrap;rounded=0;fontSize=25;" vertex="1" parent="WIyWlLk6GJQsqaUBKTNV-1">
          <mxGeometry x="-61.5" y="951" width="60" height="30" as="geometry" />
        </mxCell>
        <mxCell id="rgECArvfMiwLq1pNLp87-21" value="" style="ellipse;whiteSpace=wrap;html=1;" vertex="1" parent="WIyWlLk6GJQsqaUBKTNV-1">
          <mxGeometry x="252" y="984" width="180" height="77" as="geometry" />
        </mxCell>
        <mxCell id="rgECArvfMiwLq1pNLp87-22" value="taşınanAraçId" style="text;html=1;align=center;verticalAlign=middle;whiteSpace=wrap;rounded=0;fontSize=25;" vertex="1" parent="WIyWlLk6GJQsqaUBKTNV-1">
          <mxGeometry x="313" y="1007.5" width="60" height="30" as="geometry" />
        </mxCell>
        <mxCell id="rgECArvfMiwLq1pNLp87-27" value="" style="ellipse;whiteSpace=wrap;html=1;" vertex="1" parent="WIyWlLk6GJQsqaUBKTNV-1">
          <mxGeometry x="32" y="1008" width="168" height="80" as="geometry" />
        </mxCell>
        <mxCell id="rgECArvfMiwLq1pNLp87-28" value="birimAdet" style="text;html=1;align=center;verticalAlign=middle;whiteSpace=wrap;rounded=0;fontSize=28;" vertex="1" parent="WIyWlLk6GJQsqaUBKTNV-1">
          <mxGeometry x="96" y="1031" width="60" height="30" as="geometry" />
        </mxCell>
        <mxCell id="rgECArvfMiwLq1pNLp87-29" value="" style="endArrow=none;html=1;rounded=0;entryX=1;entryY=0.5;entryDx=0;entryDy=0;exitX=0;exitY=0;exitDx=0;exitDy=24.25;exitPerimeter=0;" edge="1" parent="WIyWlLk6GJQsqaUBKTNV-1" source="rgECArvfMiwLq1pNLp87-14" target="rgECArvfMiwLq1pNLp87-17">
          <mxGeometry width="50" height="50" relative="1" as="geometry">
            <mxPoint x="408" y="626" as="sourcePoint" />
            <mxPoint x="458" y="576" as="targetPoint" />
          </mxGeometry>
        </mxCell>
        <mxCell id="rgECArvfMiwLq1pNLp87-31" value="" style="endArrow=none;html=1;rounded=0;exitX=0.5;exitY=0;exitDx=0;exitDy=0;entryX=1;entryY=1;entryDx=0;entryDy=0;entryPerimeter=0;" edge="1" parent="WIyWlLk6GJQsqaUBKTNV-1" source="rgECArvfMiwLq1pNLp87-21" target="rgECArvfMiwLq1pNLp87-14">
          <mxGeometry width="50" height="50" relative="1" as="geometry">
            <mxPoint x="408" y="626" as="sourcePoint" />
            <mxPoint x="458" y="576" as="targetPoint" />
          </mxGeometry>
        </mxCell>
        <mxCell id="rgECArvfMiwLq1pNLp87-35" value="" style="rhombus;whiteSpace=wrap;html=1;" vertex="1" parent="WIyWlLk6GJQsqaUBKTNV-1">
          <mxGeometry x="140" y="600" width="148" height="112.75" as="geometry" />
        </mxCell>
        <mxCell id="rgECArvfMiwLq1pNLp87-36" value="Nakliye Bilgileri Tutulur" style="text;html=1;align=center;verticalAlign=middle;whiteSpace=wrap;rounded=0;fontSize=22;" vertex="1" parent="WIyWlLk6GJQsqaUBKTNV-1">
          <mxGeometry x="184" y="644.75" width="60" height="30" as="geometry" />
        </mxCell>
        <mxCell id="rgECArvfMiwLq1pNLp87-37" value="" style="endArrow=none;html=1;rounded=0;entryX=0.5;entryY=1;entryDx=0;entryDy=0;exitX=0.5;exitY=0;exitDx=0;exitDy=0;" edge="1" parent="WIyWlLk6GJQsqaUBKTNV-1" source="rgECArvfMiwLq1pNLp87-35" target="vSTawlmRk1kdKzYNn-Im-1">
          <mxGeometry width="50" height="50" relative="1" as="geometry">
            <mxPoint x="408" y="794" as="sourcePoint" />
            <mxPoint x="458" y="744" as="targetPoint" />
          </mxGeometry>
        </mxCell>
        <mxCell id="rgECArvfMiwLq1pNLp87-39" value="" style="endArrow=none;html=1;rounded=0;entryX=0.5;entryY=1;entryDx=0;entryDy=0;exitX=0.5;exitY=0;exitDx=0;exitDy=0;exitPerimeter=0;" edge="1" parent="WIyWlLk6GJQsqaUBKTNV-1" source="rgECArvfMiwLq1pNLp87-14" target="rgECArvfMiwLq1pNLp87-35">
          <mxGeometry width="50" height="50" relative="1" as="geometry">
            <mxPoint x="408" y="794" as="sourcePoint" />
            <mxPoint x="458" y="744" as="targetPoint" />
          </mxGeometry>
        </mxCell>
        <mxCell id="rgECArvfMiwLq1pNLp87-40" value="" style="endArrow=none;html=1;rounded=0;exitX=0.409;exitY=1.024;exitDx=0;exitDy=0;exitPerimeter=0;" edge="1" parent="WIyWlLk6GJQsqaUBKTNV-1" source="rgECArvfMiwLq1pNLp87-14" target="rgECArvfMiwLq1pNLp87-27">
          <mxGeometry width="50" height="50" relative="1" as="geometry">
            <mxPoint x="408" y="794" as="sourcePoint" />
            <mxPoint x="458" y="744" as="targetPoint" />
          </mxGeometry>
        </mxCell>
        <mxCell id="rgECArvfMiwLq1pNLp87-42" value="" style="endArrow=none;html=1;rounded=0;exitX=1;exitY=0;exitDx=0;exitDy=0;entryX=0;entryY=0;entryDx=0;entryDy=72.75;entryPerimeter=0;" edge="1" parent="WIyWlLk6GJQsqaUBKTNV-1" source="rgECArvfMiwLq1pNLp87-16" target="rgECArvfMiwLq1pNLp87-14">
          <mxGeometry width="50" height="50" relative="1" as="geometry">
            <mxPoint x="408" y="806" as="sourcePoint" />
            <mxPoint x="458" y="756" as="targetPoint" />
          </mxGeometry>
        </mxCell>
        <mxCell id="rgECArvfMiwLq1pNLp87-43" value="1" style="text;html=1;align=center;verticalAlign=middle;whiteSpace=wrap;rounded=0;fontSize=23;" vertex="1" parent="WIyWlLk6GJQsqaUBKTNV-1">
          <mxGeometry x="192" y="519" width="60" height="30" as="geometry" />
        </mxCell>
        <mxCell id="rgECArvfMiwLq1pNLp87-44" value="m" style="text;html=1;align=center;verticalAlign=middle;whiteSpace=wrap;rounded=0;fontSize=23;" vertex="1" parent="WIyWlLk6GJQsqaUBKTNV-1">
          <mxGeometry x="192" y="756" width="60" height="30" as="geometry" />
        </mxCell>
      </root>
    </mxGraphModel>
  </diagram>
</mxfile>
